[2026-04-19 00:13:53,706] - INFO - prepview_engine_logger - [START] Processing Chunk: Q4 for Session: session-1776538715277-l2mi19j0l
[2026-04-19 00:13:53,710] - INFO - prepview_engine_logger - Step 1: Extracting Audio...
[2026-04-19 00:13:53,713] - INFO - prepview_engine_logger - --- Processing Video: cmo4p4dqw0000mpdk8t1zrx0q_unknown_1776539633583-730135815.webm ---
[2026-04-19 00:13:53,966] - ERROR - prepview_engine_logger - Pipeline Crashed for Q4: Error passing `ffmpeg -i` command output:

Input #0, matroska,webm, from 'C:\Users\Inshal Munaf\Desktop\prepview_app\client\uploads\videos\cmo4p4dqw0000mpdk8t1zrx0q_unknown_1776539633583-730135815.webm':
  Metadata:
    encoder         : Chrome
  Duration: N/A, start: 0.000000, bitrate: N/A
  Stream #0:0(eng): Video: vp8, yuv420p(progressive), 640x480, SAR 1:1 DAR 4:3, 1k tbr, 1k tbn (default)
      Metadata:
        alpha_mode      : 1
  Stream #0:1(eng): Audio: opus, 48000 Hz, mono, fltp (default)
At least one output file must be specified

